<?xml version="1.0" encoding="utf-8"?>
<!-- Generator: Adobe Illustrator 22.0.0, SVG Export Plug-In . SVG Version: 6.00 Build 0)  -->
<svg version="1.1" id="Layer_1" xmlns="http://www.w3.org/2000/svg" xmlns:xlink="http://www.w3.org/1999/xlink" x="0px" y="0px"
	 viewBox="0 0 365.4 87.3" style="enable-background:new 0 0 365.4 87.3;" xml:space="preserve">
<style type="text/css">
	.st0{fill:#324755;stroke:#324755;stroke-miterlimit:10;}
	.st1{fill:#EA5830;}
	.st2{fill:#324755;}
</style>
<g>
	<g>
		<polyline class="st0" points="3.8,18.6 21.5,24.3 21.6,27.7 7,22.9 		"/>
	</g>
	<g>
		<path class="st1" d="M35.1,28.9c0.9-1.5,2.3-3.9,3.2-5.4c0,0,1.8-3.1,1.8-6.6c0-8-6.5-14.6-14.6-14.6S11,8.9,11,16.9
			c0,3.4,1.2,6.7,3.3,9.3c0,0,0,0,0,0c0,0,0.8,1.3,1.7,2.7l7.9,13.1c0.9,1.5,2.3,1.5,3.2,0L35.1,28.9z M25.5,7.1
			c5.4,0,9.8,4.4,9.8,9.8c0,5.4-4.4,9.8-9.8,9.8c-2.9,0-5.7-1.3-7.6-3.6c-1.4-1.7-2.2-4-2.2-6.2C15.7,11.5,20.1,7.1,25.5,7.1z"/>
	</g>
	<g>
		<polyline class="st0" points="7,22.9 7,75.6 20,80 20,34.4 51.7,18.8 51.7,72.3 32.4,83 32.9,37 44.8,31.7 44.8,35.1 36,39.1 
			35.6,77.7 48.6,70.5 48.6,23.9 23.2,36.4 23.2,84.4 3.8,77.8 3.8,18.6 		"/>
	</g>
</g>
<g>
	<path class="st2" d="M220.5,56.1c3.9,4.7,7.5,8.9,11.1,13.2c-3.1,0.7-5.4,0.3-7.2-2.4c-2.3-3.3-5.1-6.2-7.7-9.4
		c-0.8-1-1.8-1.6-3.2-1.5c-4.4,0.1-8.8,0-13.4,0c0,4.5,0,8.8,0,13.3c-1.4,0-2.5,0-3.8,0c0-11.9,0-23.7,0-35.7c0.7,0,1.3-0.1,1.9-0.1
		c9.2,0,18.4,0,27.6,0c3.8,0,6.2,2.3,6.3,6c0.1,3.5,0.1,7,0,10.4c-0.1,3.6-2.6,5.9-6.2,6C224.3,56.1,222.7,56.1,220.5,56.1z
		 M214.2,52c3.8,0,7.5,0,11.3,0c1.9,0,2.8-0.7,2.8-2.7c-0.1-3.1-0.1-6.1,0-9.2c0-2-1-2.8-2.8-2.8c-7.5,0-15.1,0-22.6,0
		c-1.9,0-2.8,0.8-2.8,2.8c0.1,3,0,6,0,9c0,2.4,0.4,2.8,2.8,2.8C206.7,52,210.4,52,214.2,52z"/>
	<path class="st2" d="M361.5,69.5c-1.3,0-2.4,0-3.7,0c0-10.3,0-20.6,0-30.9c-0.2-0.1-0.3-0.1-0.5-0.2c-5.3,6.3-10.6,12.6-16.1,19.1
		c-5.4-6.4-10.7-12.7-16.1-19c-0.1,0-0.3,0.1-0.4,0.1c0,10.2,0,20.5,0,30.8c-1.4,0-2.6,0-3.9,0c0-11.9,0-23.7,0-35.5
		c3.5-1.1,5.2-0.6,7.4,2c4.2,5.1,8.5,10.1,13.3,15.8c0.4-0.7,0.6-1.3,1-1.8c3.7-4.4,7.6-8.7,11.1-13.4c2.2-2.9,4.6-3.6,8-2.9
		C361.5,45.6,361.5,57.5,361.5,69.5z"/>
	<path class="st2" d="M297.2,33.6c3.9,0,7.8,0,11.7,0c3.8,0,6.1,2.3,6.2,6.1c0,7.9,0,15.7,0,23.6c0,3.8-2.5,6.2-6.3,6.3
		c-7.7,0-15.5,0-23.2,0c-4,0-6.3-2.4-6.4-6.4c0-7.7,0-15.5,0-23.2c0-4.1,2.3-6.4,6.3-6.4C289.4,33.6,293.3,33.6,297.2,33.6z
		 M297.1,65.5c3.8,0,7.5,0,11.3,0c2.3,0,2.8-0.5,2.8-2.8c0-7.4,0-14.9,0-22.3c0-2.3-0.6-2.9-2.8-2.9c-7.5,0-15,0-22.5,0
		c-1.9,0-2.8,0.8-2.8,2.7c0,7.6,0,15.2,0,22.8c0,1.8,0.8,2.7,2.6,2.6C289.4,65.5,293.3,65.5,297.1,65.5z"/>
	<path class="st2" d="M108.9,69.5c-1.3,0-2.4,0-3.7,0c0-10.4,0-20.6,0-30.9c-0.2-0.1-0.3-0.1-0.5-0.2C99.3,44.7,94,51,88.5,57.5
		c-5.4-6.4-10.8-12.8-16.1-19.1c-0.1,0.1-0.3,0.1-0.4,0.2c0,10.3,0,20.5,0,30.9c-1.4,0-2.5,0-3.8,0c0-11.9,0-23.7,0-35.7
		c2.9-0.4,5.4-0.6,7.6,2.3c3.9,5.2,8.3,10.1,13.1,15.7c0.4-0.7,0.6-1.3,1-1.8c3.6-4.4,7.6-8.6,10.9-13.2c2.2-3,4.6-3.8,8.2-3
		C108.9,45.6,108.9,57.4,108.9,69.5z"/>
	<path class="st2" d="M150.5,69.4c-1.3,0-2.4,0-3.7,0c0-4.4,0-8.7,0-13.1c-9.5,0-18.7,0-28.1,0c0,4.4,0,8.6,0,13.1
		c-1.4,0-2.5,0-3.9,0c0-0.8,0-1.6,0-2.3c0-8.9,0-17.8,0-26.7c0-4.6,2.2-6.8,6.7-6.8c7.7,0,15.3,0,23,0c3.7,0,6.1,2.3,6.1,5.9
		c0.1,9.6,0,19.2,0,28.8C150.6,68.6,150.5,69,150.5,69.4z M146.7,52.3c0-4.4,0.1-8.7-0.1-13c0-0.7-1.4-1.8-2.2-1.8
		c-7.9-0.1-15.7-0.1-23.6,0c-0.7,0-2.1,1.1-2.1,1.7c-0.2,4.3-0.1,8.7-0.1,13.1C128.1,52.3,137.3,52.3,146.7,52.3z"/>
	<path class="st2" d="M255.4,33.6c4,0,7.9,0,11.9,0c3.7,0,6.1,2.4,6.1,6.2c0,7.9,0,15.7,0,23.6c0,3.7-2.5,6.2-6.2,6.2
		c-7.9,0.1-15.7,0.1-23.6,0c-3.6,0-6.1-2.5-6.1-6c-0.1-8-0.1-16,0-24c0-3.6,2.5-5.9,6.2-5.9C247.6,33.6,251.5,33.6,255.4,33.6z
		 M255.3,65.5c3.8,0,7.7,0,11.5,0c2.3,0,2.8-0.5,2.8-2.8c0-7.4,0-14.9,0-22.3c0-2.2-0.6-2.9-2.8-2.9c-7.5,0-15,0-22.6,0
		c-1.9,0-2.9,0.8-2.9,2.7c0,7.6,0,15.2,0,22.8c0,1.8,0.8,2.7,2.6,2.6C247.8,65.4,251.5,65.5,255.3,65.5z"/>
	<path class="st2" d="M160.6,56.1c0,4.5,0,8.8,0,13.3c-1.3,0-2.4,0-3.8,0c0-11.8,0-23.6,0-35.7c0.6,0,1.3-0.1,2-0.1
		c9.1,0,18.3,0,27.4,0c3.8,0,6.3,2.3,6.4,6.2c0.1,3.3,0.1,6.5,0,9.8c-0.1,4.1-2.5,6.5-6.6,6.5c-7.7,0-15.3,0-23,0
		C162.3,56.1,161.5,56.1,160.6,56.1z M174.5,52c3.8,0,7.7,0,11.5,0c1.8,0,2.7-0.7,2.7-2.6c0-3.1,0-6.3,0-9.4c0-1.9-0.9-2.7-2.7-2.7
		c-7.6,0-15.2,0-22.8,0c-1.9,0-2.8,0.9-2.7,2.9c0.1,2.9,0,5.9,0,8.8c0,2.5,0.5,3,2.9,3C167.1,52,170.8,52,174.5,52z"/>
</g>
</svg>
