<?xml version="1.0" encoding="utf-8"?>
<!-- Generator: Adobe Illustrator 22.0.0, SVG Export Plug-In . SVG Version: 6.00 Build 0)  -->
<svg version="1.1" id="Layer_1" xmlns="http://www.w3.org/2000/svg" xmlns:xlink="http://www.w3.org/1999/xlink" x="0px" y="0px"
	 viewBox="0 0 55.9 87.3" style="enable-background:new 0 0 55.9 87.3;" xml:space="preserve">
<style type="text/css">
	.st0{fill:#324755;stroke:#324755;stroke-miterlimit:10;}
	.st1{fill:#EA5830;}
</style>
<g>
	<g>
		<polyline class="st0" points="3.8,18.6 21.5,24.3 21.6,27.7 7,22.9 		"/>
	</g>
	<g>
		<path class="st1" d="M35.1,28.9c0.9-1.5,2.3-3.9,3.2-5.4c0,0,1.8-3.1,1.8-6.6c0-8-6.5-14.6-14.6-14.6S11,8.9,11,16.9
			c0,3.4,1.2,6.7,3.3,9.3c0,0,0,0,0,0c0,0,0.8,1.3,1.7,2.7l7.9,13.1c0.9,1.5,2.3,1.5,3.2,0L35.1,28.9z M25.5,7.1
			c5.4,0,9.8,4.4,9.8,9.8c0,5.4-4.4,9.8-9.8,9.8c-2.9,0-5.7-1.3-7.6-3.6c-1.4-1.7-2.2-4-2.2-6.2C15.7,11.5,20.1,7.1,25.5,7.1z"/>
	</g>
	<g>
		<polyline class="st0" points="7,22.9 7,75.6 20,80 20,34.4 51.7,18.8 51.7,72.3 32.4,83 32.9,37 44.8,31.7 44.8,35.1 36,39.1 
			35.6,77.7 48.6,70.5 48.6,23.9 23.2,36.4 23.2,84.4 3.8,77.8 3.8,18.6 		"/>
	</g>
</g>
</svg>
