<?xml version="1.0" encoding="utf-8"?>
<!-- Generator: Adobe Illustrator 22.0.0, SVG Export Plug-In . SVG Version: 6.00 Build 0)  -->
<svg version="1.1" id="Layer_1" xmlns="http://www.w3.org/2000/svg" xmlns:xlink="http://www.w3.org/1999/xlink" x="0px" y="0px"
	 viewBox="0 0 304.9 195.8" style="enable-background:new 0 0 304.9 195.8;" xml:space="preserve">
<style type="text/css">
	.st0{fill:#324755;stroke:#324755;stroke-width:1.7276;stroke-miterlimit:10;}
	.st1{fill:#EA5830;}
	.st2{fill:#324755;}
	.st3{fill:#FFFFFF;}
</style>
<g>
	<g>
		<polyline class="st0" points="110.5,19.4 141,29.3 141.1,35 115.9,26.8 		"/>
	</g>
	<g>
		<path class="st1" d="M158.8,34c1-1.7,2.6-4.4,3.6-6.1c0,0,2.1-3.5,2.1-7.6c0-9.2-7.4-16.6-16.6-16.6s-16.6,7.4-16.6,16.6
			c0,3.8,1.3,7.6,3.8,10.6c0,0,0,0,0,0c0,0,0.9,1.4,1.9,3.1l9.1,14.9c1,1.7,2.7,1.7,3.7,0L158.8,34z M147.9,9.2
			c6.2,0,11.2,5,11.2,11.2c0,6.2-5,11.2-11.2,11.2c-3.3,0-6.5-1.5-8.6-4.1c-1.6-2-2.6-4.5-2.6-7.1C136.8,14.2,141.8,9.2,147.9,9.2z"
			/>
	</g>
	<g>
		<polyline class="st0" points="115.9,26.8 115.9,117.8 138.4,125.5 138.4,46.7 193.2,19.8 193.2,112.2 159.7,130.7 160.6,51.2 
			181.3,41.9 181.1,47.9 166,54.7 165.3,121.4 187.8,109 187.8,28.5 143.9,50.1 143.9,133.1 110.5,121.7 110.5,19.4 		"/>
	</g>
</g>
<g>
	<g>
		<path class="st2" d="M166.3,190.8c-1.8,0-3.9-0.3-5.6-2.8c-1.7-2.5-3.8-4.9-5.8-7.1c-0.6-0.7-1.3-1.4-1.9-2.2
			c-0.4-0.5-1-0.8-1.3-0.8c-2.3-0.1-4.6-0.1-6.3-0.1l-5.6,0v12.8h-6.6v-37.3l25.1,0c1.6,0,3.2,0,4.9,0c4.1,0,7.1,2.8,7.3,6.7
			c0.2,3.6,0.2,7.4,0,11.1c-0.2,3.8-3.1,6.6-7.1,6.7c-0.4,0-0.8,0-1.3,0l-1,0l9.7,11.5l-1,1.3c0,0-0.4,0-0.4,0c-0.5,0-1.1,0-1.6,0.1
			C167.4,190.7,166.9,190.8,166.3,190.8z M158,170.8c1.5,0,3.1,0,4.6,0c0,0,0,0,0,0c0.4,0,0.8,0,1-0.2c0.1-0.1,0.2-0.5,0.2-1
			c0-1.2,0-2.3,0-3.5c0-1.7,0-3.5-0.1-5.2c0-0.3-0.6-0.9-0.9-1c-3.7-0.1-7.8-0.1-12.9-0.1c-2.7,0-5.3,0-8,0l-1.2,0
			c-0.4,0-0.6,0.1-0.8,0.2c-0.2,0.2-0.2,0.6-0.2,0.9c0,3.1,0,6,0,8.8c0,0.4,0.1,0.7,0.2,0.9c0.1,0.1,0.4,0.2,0.8,0.2
			c1.6,0,3.2,0,4.8,0l6.2,0C152.8,170.8,157,170.8,158,170.8z"/>
		<path class="st3" d="M158.4,154c1.6,0,3.2,0,4.8,0c3.6,0,6.4,2.4,6.5,5.9c0.2,3.7,0.2,7.4,0,11.1c-0.2,3.4-2.9,5.9-6.3,6
			c-0.4,0-0.8,0-1.3,0c-0.7,0-1.6,0-2.6,0c3.7,4.3,7,8.3,10.4,12.3c-0.1,0.2-0.3,0.4-0.4,0.5c0,0,0,0,0,0c-1,0-2.1,0.1-3.1,0.1
			c-1.8,0-3.5-0.4-5-2.5c-2.3-3.3-5.1-6.3-7.7-9.3c-0.4-0.5-1.2-1.1-1.8-1.1c-2.1,0-4.2-0.1-6.3-0.1c-2.1,0-4.2,0-6.3,0
			c0,4.3,0,8.5,0,12.8c-1.9,0-3.4,0-5.1,0c0-11.9,0-23.7,0-35.8c5.8,0,11.4,0,17.1,0c0,0,0,0,0,0C153.5,154,156,154,158.4,154
			 M140.9,171.6C140.9,171.6,140.9,171.6,140.9,171.6c1.6,0,3.2,0,4.8,0c2.1,0,4.1,0,6.2,0c2.1,0,4.1,0,6.2,0c1.5,0,3.1,0,4.6,0
			c0,0,0.1,0,0.1,0c1.4,0,1.9-0.6,1.8-1.9c-0.1-2.9,0.1-5.8-0.1-8.8c0-0.6-1-1.6-1.6-1.7c-4.3-0.1-8.6-0.1-12.9-0.1
			c-3.1,0-6.1,0-9.2,0c-1.2,0-1.8,0.6-1.7,1.8c0,2.9,0,5.8,0,8.8C139.1,171.1,139.6,171.6,140.9,171.6 M158.4,152.5l-3.7,0l-3.7,0
			H134h-1.5v1.5v35.8v1.5h1.5h5.1h1.5v-1.5v-11.3c0.6,0,1.2,0,1.8,0c1,0,2.1,0,3.1,0c1.7,0,4,0,6.2,0.1c0.1,0,0.5,0.3,0.8,0.6
			c0.6,0.7,1.3,1.4,1.9,2.2c2,2.3,4,4.6,5.7,7.1c1.9,2.8,4.3,3.1,6.2,3.1c0.5,0,1.1,0,1.6-0.1c0.5,0,1-0.1,1.5-0.1h0.8l0.5-0.6
			l0.4-0.5l0.7-1l-0.8-0.9l-6.7-8l-1.6-1.9c0.2,0,0.5,0,0.7,0c4.3-0.1,7.6-3.2,7.8-7.4c0.2-3.8,0.2-7.6,0-11.2
			c-0.2-4.3-3.6-7.4-8-7.4C161.6,152.5,160,152.5,158.4,152.5L158.4,152.5z M140.6,160.7c0,0,0.1,0,0.2,0l1.3,0c2.6,0,5.3,0,7.9,0
			c5,0,9,0,12.7,0.1c0.1,0.1,0.3,0.3,0.3,0.4c0.1,1.7,0.1,3.4,0.1,5c0,1.2,0,2.4,0,3.5c0,0.2,0,0.3,0,0.4c-0.1,0-0.2,0-0.3,0l-0.1,0
			c-1.4,0-2.8,0-4.7,0c-1,0-2.1,0-3.1,0c-1,0-2.1,0-3.1,0c-1,0-2,0-3.1,0c-1,0-2.1,0-3.1,0c-1.8,0-3.3,0-4.7,0l-0.1,0
			c-0.1,0-0.2,0-0.3,0c0-0.1,0-0.2,0-0.3c0-2.8,0-5.6,0-8.8C140.6,160.9,140.6,160.8,140.6,160.7L140.6,160.7z"/>
	</g>
	<g>
		<path class="st2" d="M257.9,190.7v-37.4h0.8c0.5,0,1,0,1.6,0c0.5,0,1.1,0,1.6,0c1,0,1.8,0,2.5,0.1c0.7,0.1,1.4,0.5,2.2,1.5
			c2.7,3.2,5.4,6.4,8,9.5l3.4,4.1c0.3,0.3,0.6,0.7,0.9,1l0,0l0.4-0.5c0.9-1.1,1.7-2.1,2.6-3.1c0.8-1,1.6-1.9,2.4-2.9
			c2.1-2.5,4.2-5,6.3-7.5c0.9-1.1,2.1-2.3,4.2-2.3c0.2,0,0.5,0,0.7,0c0.4,0,0.8,0.1,1.3,0.1c0.4,0,0.7,0,1.1,0c0.4,0,0.8,0,1.3,0
			h0.8v37.4h-6.6v-27.7l-14.4,17L264.6,163v27.6H257.9z"/>
		<path class="st3" d="M294.8,153.9c0.2,0,0.4,0,0.6,0c0.4,0.1,0.9,0.1,1.3,0.1c0.7,0,1.5,0,2.4,0c0,12,0,23.9,0,35.9
			c-1.6,0-3.3,0-5.1,0c0-9.4,0-18.8,0-28.2c-0.2-0.1-0.3-0.2-0.5-0.2c-4.8,5.7-9.6,11.4-14.7,17.4c-5-5.8-9.8-11.6-15.1-17.8
			c0,9.9,0,19.3,0,28.9c-2,0-3.5,0-5.2,0c0-11.9,0-23.8,0-35.9c1.1,0,2.1,0,3.2,0c0.8,0,1.6,0,2.4,0.1c0.6,0.1,1.3,0.7,1.7,1.3
			c3.8,4.5,7.6,9.1,11.4,13.6c0.4,0.5,0.9,1,1.5,1.7c1.3-1.5,2.4-2.9,3.6-4.2c2.9-3.5,5.9-6.9,8.7-10.4
			C292.2,154.6,293.3,153.9,294.8,153.9 M294.8,152.4c-2.4,0-3.9,1.5-4.7,2.6c-2,2.5-4.2,5.1-6.2,7.5c-0.8,1-1.6,1.9-2.4,2.9
			c-0.8,0.9-1.6,1.9-2.4,2.8l-0.1,0.1c-0.1-0.1-0.2-0.2-0.3-0.4c-1.2-1.4-2.3-2.7-3.5-4.1c-2.6-3.1-5.3-6.3-8-9.5
			c-0.6-0.7-1.6-1.7-2.8-1.8c-0.8-0.1-1.6-0.1-2.6-0.1c-0.5,0-1.1,0-1.6,0c-0.5,0-1,0-1.6,0h-1.5v1.5v35.9v1.5h1.5h5.2h1.5v-1.5
			v-24.8l5.1,6l7.3,8.7l1.1,1.4l1.1-1.4l12.5-14.8v24.9v1.5h1.5h5.1h1.5v-1.5V154v-1.5h-1.5c-0.4,0-0.9,0-1.3,0c-0.4,0-0.7,0-1.1,0
			c-0.5,0-0.8,0-1.2-0.1C295.3,152.4,295.1,152.4,294.8,152.4L294.8,152.4z"/>
	</g>
	<g>
		<path class="st2" d="M82.4,190.6v-12.4H58.3v12.3h-6.6l-0.1-1.4c0-0.5-0.1-1-0.1-1.5c0-8.9,0-17.7,0-26.6c0-5.1,2.8-7.9,7.8-7.9
			l1.7,0c3.4,0,6.9,0,10.3,0c3.5,0,6.9,0,10.4,0c4.2,0,7.1,2.9,7.2,7c0.1,7.1,0,14.3,0,21.2l0,7.4c0,0.2,0,0.4-0.1,0.7
			c0,0.1,0,0.2-0.1,0.4l-0.1,0.6H82.4z M82.3,171.1l0-2.4c0-2.6,0-5.2,0-7.7c0-0.3,0-0.7-0.2-0.9c-0.1-0.1-0.4-0.2-0.7-0.2l-8.8,0
			c-3.6,0-8.4,0-13.3,0.1c-0.2,0-0.7,0.4-0.8,0.6c-0.1,2.9-0.1,5.7-0.1,8.7l0,1.9H82.3z"/>
		<path class="st3" d="M71.4,154c3.5,0,6.9,0,10.4,0c3.7,0,6.4,2.6,6.4,6.3c0.1,9.5,0,19.1,0,28.6c0,0.3-0.1,0.5-0.1,1
			c-1.6,0-3.2,0-5,0c0-4,0-8.1,0-12.4c-8.7,0-17,0-25.6,0c0,4.1,0,8.2,0,12.3c-1.8,0-3.3,0-5.1,0c0-0.7-0.1-1.4-0.1-2.2
			c0-8.9,0-17.7,0-26.6c0-4.7,2.4-7.1,7.1-7.1C63.4,154,67.4,154,71.4,154 M57.5,171.9c8.6,0,16.9,0,25.5,0c0-3.8,0-7.3,0-10.9
			c0-1.2-0.5-1.8-1.7-1.8c-3,0-5.9,0-8.9,0c-4.4,0-8.9,0-13.3,0.1c-0.6,0-1.6,0.8-1.6,1.2C57.5,164.2,57.5,168,57.5,171.9
			 M71.4,152.5c-3.4,0-6.8,0-10.2,0l-1.8,0c-5.4,0-8.5,3.1-8.5,8.6c0,8.9,0,17.7,0,26.6c0,0.6,0,1.1,0.1,1.6c0,0.2,0,0.4,0,0.6
			l0.1,1.4h1.4h5.1h1.5v-1.5V179h22.6v10.9v1.5h1.5h5h1.3l0.2-1.3c0-0.1,0-0.2,0.1-0.3c0-0.3,0.1-0.5,0.1-0.8c0-2.5,0-4.9,0-7.4
			c0-7,0-14.2,0-21.3c0-4.5-3.4-7.7-7.9-7.7C78.3,152.5,74.9,152.5,71.4,152.5L71.4,152.5z M59.3,160.7c3.8,0,7.8-0.1,13.1-0.1
			c2.2,0,4.3,0,6.5,0l2.4,0c0.1,0,0.2,0,0.2,0c0,0.1,0,0.2,0,0.3c0,2.5,0,5,0,7.7l0,1.7H59c0-0.4,0-0.8,0-1.2c0-2.9,0-5.6,0.1-8.4
			C59.2,160.8,59.3,160.8,59.3,160.7L59.3,160.7z"/>
	</g>
	<g>
		<path class="st2" d="M5,190.6v-37.4h0.8c0.5,0,1,0,1.6,0c0.5,0,1.1,0,1.6,0c1,0,1.8,0,2.5,0.1c0.7,0.1,1.4,0.6,2.2,1.5
			c2.7,3.2,5.4,6.4,8.1,9.7l3.2,3.8c0.3,0.4,0.6,0.7,1,1.2l0,0l3.6-4.3c0.8-0.9,1.6-1.9,2.4-2.8c1.9-2.2,3.8-4.5,5.6-6.8
			c0.9-1.2,2.2-2.5,4.4-2.5c0.3,0,0.6,0,0.9,0.1c0.3,0,0.7,0.1,1.1,0.1c0.3,0,0.7,0,1,0c0.4,0,0.8,0,1.2,0H47v37.4h-6.6v-27.7
			L26,180L11.7,163v27.6H5z"/>
		<path class="st3" d="M42,153.9c0.2,0,0.5,0,0.8,0.1c0.4,0.1,0.8,0.1,1.2,0.1c0.7,0,1.4-0.1,2.2-0.1c0,12,0,23.9,0,35.9
			c-1.6,0-3.2,0-5.1,0c0-9.4,0-18.8,0-28.2c-0.2-0.1-0.4-0.1-0.5-0.2c-4.8,5.7-9.6,11.4-14.6,17.3c-4.9-5.9-9.8-11.6-15.1-17.8
			c0,10,0,19.4,0,28.9c-1.9,0-3.5,0-5.2,0c0-11.9,0-23.7,0-35.9c1.1,0,2.1,0,3.2,0c0.8,0,1.6,0,2.4,0.1c0.6,0.1,1.3,0.7,1.7,1.3
			c3.8,4.5,7.5,9,11.3,13.4c0.5,0.6,1,1.1,1.6,1.9c1.5-1.7,2.8-3.3,4.1-4.9c2.7-3.2,5.5-6.3,8-9.6C39.3,154.7,40.4,153.9,42,153.9
			 M42,152.4c-2.5,0-4,1.5-5,2.8c-1.8,2.3-3.7,4.6-5.6,6.8c-0.8,0.9-1.6,1.9-2.4,2.8l-2.8,3.3l-0.2,0.3c-0.2-0.2-0.3-0.4-0.5-0.5
			c-1.1-1.3-2.1-2.5-3.2-3.8c-2.7-3.2-5.4-6.5-8.1-9.7c-0.6-0.7-1.6-1.7-2.8-1.8c-0.8-0.1-1.6-0.1-2.6-0.1c-0.5,0-1.1,0-1.6,0
			c-0.5,0-1,0-1.6,0H4.3v1.5v35.9v1.5h1.5h5.2h1.5v-1.5v-24.8l4.1,4.8l8.4,9.9l1.1,1.4l1.1-1.4l7.1-8.5l5.3-6.3v24.9v1.5h1.5h5.1
			h1.5v-1.5V154v-1.5h-1.5c-0.4,0-0.8,0-1.2,0c-0.3,0-0.7,0-1,0c-0.4,0-0.7,0-1-0.1C42.6,152.4,42.3,152.4,42,152.4L42,152.4z"/>
	</g>
	<g>
		<path class="st2" d="M193.3,190.7c-3.8,0-7.6,0-11.4,0c-4.3,0-7.4-3-7.4-7.3c-0.1-7.2-0.1-14.7,0-23c0-4.3,3-7.2,7.4-7.2
			c1.5,0,3,0,4.5,0l7,0l6.9,0c1.5,0,2.9,0,4.4,0c4.2,0,7.2,3,7.2,7.2c0.1,7.8,0.1,15.5,0,23c0,4.3-3.1,7.3-7.4,7.3
			C200.8,190.7,197,190.7,193.3,190.7z M182.4,159.9c-0.5,0-0.8,0.1-0.9,0.2c-0.2,0.2-0.3,0.5-0.2,1.1c0,7.5,0,14.5,0,21.3
			c0,0.6,0.1,0.9,0.2,1.1c0.1,0.2,0.5,0.2,1,0.2l0.1,0c1.5,0,3,0,4.5,0c1,0,5.1,0,6.2,0s5.1,0,6.2,0c1.5,0,3,0,4.5,0l0.1,0
			c0.5,0,0.8-0.1,1-0.2c0.2-0.2,0.3-0.5,0.3-1.1c0-7.2,0-14.3,0-21.1c0-0.6-0.1-1-0.3-1.2c-0.2-0.2-0.5-0.3-1-0.3
			c-3.7,0-7.3,0-10.9,0C189.5,159.9,185.9,159.9,182.4,159.9v-0.8V159.9z"/>
		<path class="st3" d="M200.2,154c1.5,0,2.9,0,4.4,0c3.8,0,6.4,2.6,6.5,6.4c0,7.7,0.1,15.3,0,23c0,3.8-2.7,6.5-6.6,6.6
			c-3.7,0-7.4,0-11.2,0c-3.8,0-7.6,0-11.4,0c-3.9,0-6.7-2.7-6.7-6.5c-0.1-7.7-0.1-15.3,0-23c0-3.9,2.7-6.5,6.7-6.5c1.5,0,3,0,4.5,0
			c2.3,0,4.7,0,7,0c0,0,0.1,0,0.1,0C195.7,154,198,154,200.2,154 M193,159.2c-3.5,0-7,0-10.6,0c0,0,0,0,0,0c-1.4,0-1.9,0.6-1.9,2
			c0,7.1,0,14.2,0,21.3c0,1.5,0.5,2.1,2,2.1c0,0,0.1,0,0.1,0c1.5,0,3,0,4.5,0c2,0,4.1,0,6.1,0c0,0,0,0,0,0c2.1,0,4.1,0,6.2,0
			c1.5,0,3,0,4.5,0c0,0,0.1,0,0.1,0c1.5,0,2-0.6,2-2.1c0-7,0-14.1,0-21.1c0-1.5-0.5-2.2-2-2.2c0,0,0,0,0,0
			C200.3,159.2,196.6,159.2,193,159.2 M200.2,152.5c-1.1,0-2.3,0-3.4,0c-1.1,0-2.3,0-3.4,0l-0.1,1.5l0-1.5c-1.2,0-2.3,0-3.5,0
			c-1.2,0-2.4,0-3.6,0c-1.5,0-3,0-4.5,0c-4.8,0-8.1,3.3-8.1,8c-0.1,8.3-0.1,15.8,0,23c0,4.6,3.5,8,8.2,8c3.9,0,7.7,0,11.4,0
			c3.8,0,7.5,0,11.2,0c4.7,0,8.1-3.4,8.1-8.1c0.1-7.5,0.1-15.3,0-23c0-4.6-3.3-7.9-8-7.9C203.2,152.5,201.7,152.5,200.2,152.5
			L200.2,152.5z M193,160.7c3.7,0,7.3,0,11,0c0,0,0,0,0,0c0.3,0,0.4,0,0.4,0c0,0.1,0.1,0.3,0.1,0.7c0,6.9,0,14,0,21.1
			c0,0.3,0,0.5,0,0.6c-0.1,0-0.2,0-0.4,0l-0.1,0c-1.3,0-2.8,0-4.5,0c-1,0-2.1,0-3.1,0c-1,0-2.1,0-3.1,0c-1,0-2.1,0-3.1,0
			c-1,0-2,0-3.1,0c-1.8,0-3.2,0-4.5,0l-0.1,0c-0.2,0-0.3,0-0.4,0c0-0.1,0-0.2,0-0.5c0-6.8,0.1-13.8,0-21.3c0-0.3,0-0.4,0-0.5
			c0.1,0,0.2,0,0.4,0C185.9,160.7,189.4,160.7,193,160.7L193,160.7z"/>
	</g>
	<g>
		<path class="st2" d="M234.7,190.7c-3.8,0-7.5,0-11.3,0c-4.2,0-7.2-3.1-7.2-7.2c0-7.3-0.1-14.8,0-23c0-4.2,3-7.2,7.2-7.2
			c1.5,0,3,0,4.5,0l7.2,0l6.8,0c1.5,0,3,0,4.5,0c4.2,0,7.1,2.9,7.1,7c0.1,7.8,0.1,15.7,0,23.2c0,4.1-3.1,7.2-7.3,7.2
			C242.4,190.7,238.5,190.7,234.7,190.7z M240.8,183.8c1.5,0,2.9,0,4.4,0.1l0.2,0c0.6,0,1-0.1,1.1-0.3c0.2-0.2,0.3-0.6,0.3-1.2
			c-0.1-6.9-0.1-14,0-20.9c0-0.6-0.1-1-0.3-1.2c-0.2-0.2-0.6-0.3-1.3-0.3c-3.5,0-6.9,0-10.4,0c-3.5,0-7.1,0-10.6,0h0
			c-0.6,0-1,0.1-1.2,0.3c-0.2,0.2-0.3,0.6-0.3,1.2c0.1,7,0.1,14.1,0,21.1c0,0.6,0.1,0.9,0.3,1.1c0.2,0.2,0.5,0.3,1.1,0.3l0.1,0
			c1.5,0,3,0,4.4,0c1,0,2,0,3,0c1,0,2,0,3,0c1,0,2,0,3,0C238.8,183.8,239.8,183.8,240.8,183.8z"/>
		<path class="st3" d="M241.8,154c1.5,0,3,0,4.5,0c3.7,0,6.4,2.6,6.4,6.3c0.1,7.7,0.1,15.5,0,23.2c0,3.8-2.8,6.4-6.6,6.4
			c-3.9,0-7.7,0-11.6,0c-3.7,0-7.5,0-11.2,0c-3.8,0-6.5-2.7-6.5-6.5c-0.1-7.7,0-15.3,0-23c0-3.8,2.6-6.4,6.4-6.5c1.5,0,3,0,4.5,0
			c2.3,0,4.7,0,7,0c0,0,0,0,0,0C237.2,154,239.5,154,241.8,154 M234.9,159.2c-3.5,0-7,0-10.6,0c0,0,0,0,0,0c-1.5,0-2.2,0.5-2.2,2.2
			c0.1,7,0.1,14.1,0,21.1c0,1.6,0.6,2.1,2.1,2.1c0.1,0,0.1,0,0.2,0c1.5,0,2.9,0,4.4,0c2,0,4,0,6.1,0c2,0,4.1,0,6.1,0
			c1.5,0,2.9,0,4.4,0.1c0.1,0,0.1,0,0.2,0c1.5,0,2.2-0.5,2.2-2.2c-0.1-7-0.1-13.9,0-20.9c0-1.8-0.7-2.3-2.3-2.3c0,0,0,0,0,0
			C241.8,159.2,238.3,159.2,234.9,159.2 M241.8,152.5c-1.2,0-2.3,0-3.5,0c-1.2,0-2.3,0-3.5,0c-1.2,0-2.4,0-3.5,0c-1.2,0-2.4,0-3.5,0
			c-1.5,0-3,0-4.5,0c-4.6,0-7.9,3.3-7.9,8c0,8.2,0,15.7,0,23c0,4.6,3.4,7.9,8,8c3.6,0,7.4,0,11.3,0c3.7,0,7.6,0,11.6,0
			c4.6,0,8-3.4,8-7.9c0.1-7.6,0.1-15.4,0-23.3c0-4.5-3.4-7.7-7.9-7.8C244.9,152.5,243.4,152.5,241.8,152.5L241.8,152.5z
			 M234.9,160.7c3.5,0,6.9,0,10.4,0c0,0,0,0,0,0c0.6,0,0.8,0.1,0.8,0.1c0,0,0.1,0.2,0.1,0.7c-0.1,7-0.1,14,0,20.9
			c0,0.4,0,0.6-0.1,0.7c-0.1,0-0.3,0.1-0.6,0.1l-0.2,0c-1.3,0-2.7-0.1-4.4-0.1c-1,0-2,0-3.1,0c-1,0-2,0-3,0c-1,0-2,0-3,0
			c-1,0-2,0-3,0c-1.7,0-3.1,0-4.4,0l-0.1,0c-0.3,0-0.5,0-0.6,0c0-0.1-0.1-0.3,0-0.6c0.1-7.1,0.1-14.2,0-21.1c0-0.4,0-0.5,0.1-0.6
			c0.1,0,0.2-0.1,0.7-0.1C227.8,160.7,231.3,160.7,234.9,160.7L234.9,160.7z"/>
	</g>
	<g>
		<path class="st2" d="M93.7,190.6v-37.3l18.6,0l11.1,0c4.5,0,7.5,2.9,7.6,7.3c0.1,3.1,0.1,6.3,0,9.9c-0.1,4.4-3.1,7.4-7.6,7.4
			c-3.3,0-6.5,0-9.8,0l-13.4,0v12.8H93.7z M101.4,159.9c-0.5,0-0.8,0.1-1,0.3c-0.2,0.2-0.3,0.5-0.2,1c0.1,3,0.1,5.7,0,8.4
			c0,0.6,0.1,0.9,0.2,1.1c0.1,0.2,0.5,0.2,1,0.2l0.1,0c1.5,0,3,0,4.5,0c1,0,2,0,3.1,0c1,0,2,0,3.1,0c1,0,5.2,0,6.2,0
			c1.6,0,3.1,0,4.7,0l0.1,0c0.5,0,0.8-0.1,0.9-0.2c0.1-0.1,0.2-0.5,0.2-0.9c-0.1-2.8-0.1-5.6,0-8.4c0-0.6-0.1-1-0.3-1.2
			c-0.2-0.2-0.5-0.3-1-0.3c-3.7,0-7.4,0-11.1,0l-8.3,0H101.4z"/>
		<path class="st3" d="M111.9,154c3.8,0,7.6,0,11.4,0c4,0,6.8,2.5,6.9,6.5c0.1,3.3,0.1,6.6,0,9.8c-0.1,4-2.8,6.6-6.8,6.6
			c-3.3,0-6.5,0-9.8,0c-4.6,0-9.3,0-14.2,0c0,4.4,0,8.6,0,12.8c-1.8,0-3.3,0-5,0c0-11.9,0-23.7,0-35.8c0.4,0,0.9,0,1.3,0
			c0.2,0,0.4,0,0.7,0C101.6,154,106.7,154,111.9,154 M111.8,159.2c-2.7,0-5.5,0-8.2,0c-0.7,0-1.4,0-2.1,0c-1.4,0-2,0.6-2,2
			c0.1,2.8,0.1,5.6,0,8.3c0,1.5,0.5,2.1,1.9,2.1c0,0,0.1,0,0.1,0c1.5,0,3,0,4.5,0c2,0,4.1,0,6.1,0c0,0,0,0,0,0c2.1,0,4.1,0,6.2,0
			c1.5,0,3.1,0,4.6,0c0,0,0.1,0,0.1,0c1.4,0,1.9-0.5,1.8-1.9c-0.1-2.8-0.1-5.6,0-8.3c0-1.5-0.5-2.2-2-2.2c0,0,0,0,0,0
			C119.2,159.2,115.5,159.2,111.8,159.2 M111.9,152.5l-7.8,0l-7.8,0h-0.7H95h-0.6h-1.5v1.5v35.8v1.5h1.5h5h1.5v-1.5v-11.3l5.7,0l7,0
			c3.3,0,6.6,0,9.8,0c4.8,0,8.2-3.3,8.3-8.1c0.1-3.6,0.1-6.8,0-9.9c-0.1-4.8-3.5-8-8.4-8C119.5,152.5,115.7,152.5,111.9,152.5
			L111.9,152.5z M111.8,160.7c3.7,0,7.5,0,11.2,0c0.3,0,0.4,0,0.5,0c0,0.1,0.1,0.2,0.1,0.6c-0.1,2.8-0.1,5.6,0,8.4
			c0,0.2,0,0.3,0,0.4c-0.1,0-0.2,0-0.3,0l-0.1,0c-1.4,0-2.9,0-4.7,0c-1,0-2.1,0-3.1,0c-1,0-2.1,0-3.1,0c-1,0-2.1,0-3.1,0
			c-1,0-2.1,0-3.1,0c-1.8,0-3.2,0-4.5,0l-0.1,0c-0.2,0-0.3,0-0.4,0c0-0.1,0-0.2,0-0.5c0.1-2.7,0.1-5.4,0-8.4c0-0.3,0-0.4,0-0.5
			c0.1,0,0.2-0.1,0.5-0.1l2.1,0l4.1,0L111.8,160.7L111.8,160.7z"/>
	</g>
</g>
</svg>
